<?xml version="1.0" encoding="UTF-8" standalone="no"?><svg xmlns="http://www.w3.org/2000/svg" height="60" viewBox="0 0 835.3 144.32" width="350"><defs><style>.cls-1{fill:#ffffff;}.cls-2{fill:#ffffff;}</style></defs><g data-name="Ebene 2" id="Ebene_2"><g data-name="Ebene 1" id="Ebene_1-2"><path class="cls-1" d="M835.3,141.44v-24.3h-77l-4.57,24.3Z"/><polygon class="cls-1" points="633.21 117.14 633.21 141.44 714.23 141.44 708.82 117.14 633.21 117.14"/><path class="cls-1" d="M673,59.9l-5.9-25.13h50.3l16.31,72.15h.69L744.68,60.7c5.18-21,7.13-25.93,36.28-25.93h21s-4.24,19.34-9.51,40.33c-2,8-19.51,7.06-18.63-.41.08-.78.92-6.42,1.58-10.42.94-5.76-5.69-6.47-6.89-.78-.85,4.09-4.69,24.36-8.29,43.43h75.1V3.33H633.21V106.92h73.33l-10.45-47Z"/><path class="cls-1" d="M552,76.84l10.23-10.2.85-.85s2.56-2,1.14-4.55a8.88,8.88,0,0,1-1.14-5.09,8.2,8.2,0,0,1,1.14-4.26l7.92-8,.29-.29a1.92,1.92,0,0,1,2.86,0,2.23,2.23,0,0,1,0,3.11H575l-6.52,6.82a4.45,4.45,0,0,0,0,6.24c1.69,1.72,5.39,1.14,7.66-.85l1.13-1.14,15.89-16.16-8.8-9.07c-3.7-3.7-9.36-3.41-13,.3L539.84,64.65,508.34,32.9c-3.68-3.71-9.65-4-13-.3l-9.08,9.07L503.52,59c2.27,2,6,2.57,7.67.85a4.47,4.47,0,0,0,0-6.24l-6.53-6.82h-.28a2.19,2.19,0,0,1,0-3.11,1.88,1.88,0,0,1,2.82,0l.29.29,7.66,8a5.91,5.91,0,0,1,1.14,4.26,7.06,7.06,0,0,1-1.14,5.09c-1.13,2.55,1.44,4.55,1.44,4.55l.84.85,10.2,10.2-39.91,39.65a68.8,68.8,0,1,1,104.7.46ZM540.26,141a68.42,68.42,0,0,1-39.54-12.54l39.12-39.37,39.45,39.71a68.29,68.29,0,0,1-39,12.2m0-141a72.16,72.16,0,1,0,72.17,72.16A72.29,72.29,0,0,0,540.26,0"/><path class="cls-2" d="M49.94,83.87,66.81,38,83.69,83.87ZM81.44,3.33H52.86L0,141.45H28.79l12.15-33.29H92.68l12.37,33.29h29.24Z"/><path class="cls-2" d="M208.06,117.15H180.84V82.52h27.22c13.5,0,20.7,6.52,20.7,17.31,0,10.57-7.2,17.32-20.7,17.32M180.84,27.62h23.4c13.72,0,20.92,5,20.92,16S218,60,204.24,60h-23.4Zm53.54,42.52c10.13-3.59,18.22-14.4,18.22-29.24,0-24.74-17.77-37.56-46.57-37.56H153.17V141.45h57.37c28.79,0,46.35-13.72,46.35-39.14,0-15.07-9.45-27.9-22.51-32.17"/><path class="cls-2" d="M349.76,92V69H404.2V81.17c0,38.24-25.2,62.54-60.07,62.54-38.46,0-66.58-29-66.58-71.31S305.9,1.08,343.47,1.08c33.29,0,53.31,19.12,58.48,46.79h-29c-4.95-13-13.49-21.15-29.46-21.15-22.72,0-36.67,19.13-36.67,45.68,0,26.76,14.16,45.89,37.33,45.89,17.77,0,28.8-10.58,31.95-26.33Z"/></g></g></svg>